# GodotGo orb: octahedron generated by tools/gen_assets.py
o Orb
v 0.0000 0.4000 0.0000
v 0.4000 0.0000 0.0000
v 0.0000 0.0000 0.4000
v -0.4000 0.0000 0.0000
v 0.0000 0.0000 -0.4000
v 0.0000 -0.4000 0.0000
vn 0.5774 0.5774 0.5774
vn -0.5774 0.5774 0.5774
vn -0.5774 0.5774 -0.5774
vn 0.5774 0.5774 -0.5774
vn 0.5774 -0.5774 0.5774
vn -0.5774 -0.5774 0.5774
vn -0.5774 -0.5774 -0.5774
vn 0.5774 -0.5774 -0.5774
f 1//1 3//1 2//1
f 1//2 4//2 3//2
f 1//3 5//3 4//3
f 1//4 2//4 5//4
f 6//5 2//5 3//5
f 6//6 3//6 4//6
f 6//7 4//7 5//7
f 6//8 5//8 2//8
